<?xml version="1.0" encoding="UTF-8" standalone="no"?>
<!-- Created with Inkscape (http://www.inkscape.org/) -->

<svg
   width="10mm"
   height="10mm"
   viewBox="0 0 10 10"
   version="1.1"
   id="svg5"
   inkscape:version="1.2 (dc2aedaf03, 2022-05-15)"
   sodipodi:docname="floor-stone-2.svg"
   xmlns:inkscape="http://www.inkscape.org/namespaces/inkscape"
   xmlns:sodipodi="http://sodipodi.sourceforge.net/DTD/sodipodi-0.dtd"
   xmlns="http://www.w3.org/2000/svg"
   xmlns:svg="http://www.w3.org/2000/svg">
  <sodipodi:namedview
     id="namedview7"
     pagecolor="#ffffff"
     bordercolor="#666666"
     borderopacity="1.0"
     inkscape:pageshadow="2"
     inkscape:pageopacity="0.0"
     inkscape:pagecheckerboard="0"
     inkscape:document-units="mm"
     showgrid="false"
     width="10mm"
     inkscape:lockguides="true"
     inkscape:zoom="9.4074074"
     inkscape:cx="-43.15748"
     inkscape:cy="-2.6043307"
     inkscape:window-width="3840"
     inkscape:window-height="2075"
     inkscape:window-x="0"
     inkscape:window-y="44"
     inkscape:window-maximized="1"
     inkscape:current-layer="layer1"
     inkscape:showpageshadow="2"
     inkscape:deskcolor="#d1d1d1" />
  <defs
     id="defs2" />
  <g
     inkscape:label="Layer 1"
     inkscape:groupmode="layer"
     id="layer1">
    <rect
       style="fill:#666666;fill-rule:evenodd;stroke-width:0.264583"
       id="rect31"
       width="10"
       height="10"
       x="0"
       y="-0.0140625" />
    <path
       style="fill:#9d9d9d;fill-opacity:1;stroke:none;stroke-width:0.265;stroke-linecap:butt;stroke-linejoin:miter;stroke-miterlimit:4;stroke-dasharray:none;stroke-opacity:1"
       d="M 2.6612966,5.3199384 C 0.63176526,5.2657029 0.01058405,5.9174595 1.4078876,7.0064713 2.8051913,8.0954832 3.660593,7.247315 3.6900978,7.0981588 3.7196027,6.9490025 3.3614772,5.3386494 2.6612966,5.3199384 Z"
       id="path190"
       sodipodi:nodetypes="ssss" />
    <path
       style="fill:#9d9d9d;fill-opacity:1;stroke:none;stroke-width:0.265;stroke-linecap:butt;stroke-linejoin:miter;stroke-miterlimit:4;stroke-dasharray:none;stroke-opacity:1"
       d="M 8.4022424,4.0748319 C 7.9931074,3.8978022 7.5781831,4.448664 7.1359823,4.5051397 6.9161272,4.5332187 6.6584597,4.3351491 6.472856,4.4562937 6.2365642,4.6105227 6.0683524,5.0675893 6.1899813,5.2541444 6.3116102,5.4406991 7.2644404,6.0727468 7.8727961,5.9965819 8.3074257,5.9421672 8.8031226,5.6116189 8.9071812,5.1861361 9.0038415,4.7909045 8.7756647,4.2364086 8.4022424,4.0748319 Z"
       id="path548"
       sodipodi:nodetypes="sssssss" />
    <path
       style="fill:#9d9d9d;fill-opacity:1;stroke:none;stroke-width:0.265;stroke-linecap:butt;stroke-linejoin:miter;stroke-miterlimit:4;stroke-dasharray:none;stroke-opacity:1"
       d="M 3.7262034,1.1176512 C 3.7981884,0.98661856 3.370273,0.55164166 3.0059363,0.35710186 c -0.7284416,-0.3889566 -2.63985845,-0.024153 -2.73245305,0.081071 -0.1455814,0.165437 0.3708984,0.4526747 0.4419587,0.93288484 0.033765,0.2281732 -0.2609401,0.8582711 0.082399,0.7759859 C 1.0822965,2.0788706 1.3901402,1.5761492 1.9680266,1.3030293 2.6992787,0.95742596 3.5459707,1.4457263 3.7262034,1.1176512 Z"
       id="path550"
       sodipodi:nodetypes="sssssss" />
    <path
       style="fill:#9d9d9d;fill-opacity:1;stroke:none;stroke-width:0.265;stroke-linecap:butt;stroke-linejoin:miter;stroke-miterlimit:4;stroke-dasharray:none;stroke-opacity:1"
       d="M 0.4782181,7.3585281 C 0.0604078,7.6543401 0.3395834,8.7961821 0.4288391,8.8935178 0.5296926,9.0035013 1.6908127,9.4405671 1.9131048,9.3657594 2.1484412,9.2865624 2.4246712,8.3178857 2.1653551,7.8924271 1.8583611,7.3887436 0.9596374,7.0176802 0.4782181,7.3585281 Z"
       id="path552"
       sodipodi:nodetypes="sssss" />
    <path
       style="fill:#9d9d9d;fill-opacity:1;stroke:none;stroke-width:0.265;stroke-linecap:butt;stroke-linejoin:miter;stroke-miterlimit:4;stroke-dasharray:none;stroke-opacity:1"
       d="M 7.7793681,1.699694 C 7.3328028,1.6041287 7.1712967,2.3024268 6.7146747,2.309483 6.4056526,2.3142583 6.1662871,2.1069019 5.8757055,2.2121628 5.4903941,2.3517389 5.3425496,2.7191317 5.384435,3.110378 5.4132284,3.3793341 6.7617211,4.4684784 7.3437066,4.2525939 7.683652,4.126493 8.5135401,3.4504773 8.5464281,2.8305228 8.570557,2.3756829 8.2247632,1.795009 7.7793681,1.699694 Z"
       id="path554"
       sodipodi:nodetypes="sssssss" />
    <path
       style="fill:#9d9d9d;fill-opacity:1;stroke:none;stroke-width:0.265;stroke-linecap:butt;stroke-linejoin:miter;stroke-miterlimit:4;stroke-dasharray:none;stroke-opacity:1"
       d="M 5.1374376,2.897266 C 4.8316149,2.161202 3.5925088,1.5024125 3.3187125,1.8337949 3.0010196,2.2183064 2.3222321,3.3955047 2.6463119,4.2139124 2.9605079,5.0073598 3.822756,5.452009 4.6749685,5.407156 5.1630729,5.3814664 5.8244006,5.1151903 5.9223559,4.6363264 6.0049759,4.2324252 5.2670567,4.0335466 5.2100592,3.6252409 5.1730512,3.360134 5.2401452,3.1444568 5.1374376,2.897266 Z"
       id="path558"
       sodipodi:nodetypes="sssssss" />
    <path
       style="fill:#9d9d9d;fill-opacity:1;stroke:none;stroke-width:0.265;stroke-linecap:butt;stroke-linejoin:miter;stroke-miterlimit:4;stroke-dasharray:none;stroke-opacity:1"
       d="m 2.9158877,9.4692814 c 0.4259627,0.340303 1.3625851,0.054329 1.7579408,0.078189 0.3953542,0.023859 0.2797906,0.095776 0.4267948,0.068535 C 5.3076336,9.5776426 5.4455059,9.2205593 5.2587503,8.952836 5.1301412,8.7684653 4.1293187,9.008853 3.7822483,8.8147343 3.4351766,8.6206162 3.487562,8.1964547 3.2399479,8.0926273 2.9923329,7.9888007 2.8656919,7.7885546 2.6454789,8.078424 2.4252676,8.3682947 2.4899258,9.1289796 2.9158886,9.4692816 Z"
       id="path560"
       sodipodi:nodetypes="ssssssss" />
    <path
       style="fill:#9d9d9d;fill-opacity:1;stroke:none;stroke-width:0.264583px;stroke-linecap:butt;stroke-linejoin:miter;stroke-opacity:1"
       d="m 5.2375605,5.5924336 c -0.5337687,-0.0065 -1.4433365,0.102438 -1.4698969,0.635585 -0.023058,0.462834 0.7588645,0.593435 1.2148841,0.675856 0.7734782,0.139799 2.2208529,0.425669 2.3315334,-0.35251 0.1073579,-0.754818 -1.314163,-0.949593 -2.0765206,-0.958931 z"
       id="path562"
       sodipodi:nodetypes="sssss" />
    <path
       style="fill:#9d9d9d;fill-opacity:1;stroke:none;stroke-width:0.264583px;stroke-linecap:butt;stroke-linejoin:miter;stroke-opacity:1"
       d="M 2.9432309,1.8091697 C 2.8378499,1.4480998 2.0621257,1.355835 1.8170183,1.7389261 1.557801,2.1440717 1.5177133,2.5109896 1.5899878,2.7963152 1.7270865,3.3375655 3.0996638,2.345153 2.9432338,1.8091705 Z"
       id="path564"
       sodipodi:nodetypes="ssss" />
    <path
       style="fill:#9d9d9d;fill-opacity:1;stroke:none;stroke-width:0.264583px;stroke-linecap:butt;stroke-linejoin:miter;stroke-opacity:1"
       d="m 0.93841053,4.9967466 c 0.58058797,0.32933 1.65521797,0.148044 1.69518797,-0.08457 0.04511,-0.26254 -0.585895,-1.762004 -1.525844,-1.868596 -0.62061197,-0.07038 -0.88193297,0.07339 -0.90122697,0.697684 -0.0108,0.349544 0.427701,1.082944 0.73185,1.255505 z"
       id="path566"
       sodipodi:nodetypes="sssss" />
    <path
       style="fill:#9d9d9d;fill-opacity:1;stroke:none;stroke-width:0.174957;stroke-linecap:butt;stroke-linejoin:miter;stroke-miterlimit:4;stroke-dasharray:none;stroke-opacity:1"
       d="M 8.722485,3.0035017 C 8.8192341,3.2412632 8.7758037,4.1589802 8.9563151,4.457741 9.107277,4.7074632 9.8258017,4.1687733 9.8200002,4.1095684 9.8142046,4.0503591 9.4343141,3.1333448 9.1726375,2.7476782 8.7758607,2.1628823 8.5897091,2.6772031 8.722485,3.0035017 Z"
       id="path568"
       sodipodi:nodetypes="sssss" />
    <path
       style="fill:#9d9d9d;fill-opacity:1;stroke:none;stroke-width:0.265;stroke-linecap:butt;stroke-linejoin:miter;stroke-miterlimit:4;stroke-dasharray:none;stroke-opacity:1"
       d="M 6.6516056,7.7938751 C 6.7523728,8.2887244 6.7773259,9.1967244 7.2817052,9.171642 8.0375678,9.1340529 8.4468452,8.2770804 8.6612494,7.6587608 8.8317947,7.1669246 9.0569401,6.3226492 8.443037,6.3376881 8.0467187,6.3473981 7.8520676,6.8712681 7.5194933,7.087038 7.2496716,7.262095 6.8309703,7.2517415 6.6589555,7.523512 c -0.04822,0.076183 -0.025342,0.1820218 -0.00735,0.2703631 z"
       id="path570"
       sodipodi:nodetypes="sssssss" />
    <path
       style="fill:#9d9d9d;fill-opacity:1;stroke:none;stroke-width:0.264583px;stroke-linecap:butt;stroke-linejoin:miter;stroke-opacity:1"
       d="m 4.8228825,8.711086 c 0.627757,0.017457 1.625728,-0.8123913 1.537368,-1.0890133 -0.122636,-0.383928 -1.215644,-0.5571752 -1.839956,-0.458446 -0.357298,0.056503 -0.900061,0.2133446 -0.920677,0.5744953 -0.02969,0.5201599 0.702459,0.9584806 1.223265,0.972964 z"
       id="path572"
       sodipodi:nodetypes="sssss" />
    <path
       style="fill:#9d9d9d;fill-opacity:1;stroke:none;stroke-width:0.264583px;stroke-linecap:butt;stroke-linejoin:miter;stroke-opacity:1"
       d="m 4.1632199,0.27897855 c -0.255311,-0.00441 -0.274668,0.627182 -0.139871,0.84405345 0.52062,0.8376081 2.048517,1.0722173 2.901737,0.5775968 0.426806,-0.2474245 0.407848,-1.63908525 -0.08263,-1.58604555 -0.940113,0.1016625 -1.740157,0.1805995 -2.679234,0.1643953 z"
       id="path574"
       sodipodi:nodetypes="sssss" />
    <path
       style="fill:#9d9d9d;fill-opacity:1;stroke:none;stroke-width:0.264583px;stroke-linecap:butt;stroke-linejoin:miter;stroke-opacity:1"
       d="M 9.4530664,0.69808829 C 9.0274746,0.23629265 7.7366625,0.10065394 7.6002039,0.35698616 7.4108109,0.71275379 8.0495088,1.6164939 8.5559115,1.9947388 8.8457289,2.2112113 9.336842,2.4904941 9.6098931,2.2532222 10.003163,1.9114811 9.8061498,1.0812081 9.4530664,0.69808829 Z"
       id="path181"
       sodipodi:nodetypes="sssss" />
    <path
       style="fill:#9d9d9d;fill-opacity:1;stroke:none;stroke-width:0.164836px;stroke-linecap:butt;stroke-linejoin:miter;stroke-opacity:1"
       d="M 5.7760241,9.5373162 C 6.0439634,9.8232216 6.8375822,9.8901884 6.917406,9.7260514 7.0281936,9.4982425 6.6229189,8.9358889 6.3066801,8.7040137 6.1256944,8.5713094 5.8203219,8.4018114 5.6564474,8.5558851 5.4204211,8.7777955 5.5537326,9.3001209 5.7760241,9.5373162 Z"
       id="path279"
       sodipodi:nodetypes="sssss" />
    <path
       style="fill:#9d9d9d;fill-opacity:1;stroke:none;stroke-width:0.264583px;stroke-linecap:butt;stroke-linejoin:miter;stroke-opacity:1"
       d="M 9.5682152,5.2769286 C 9.2340812,5.1042118 8.6322664,5.6022882 8.7406199,6.0439848 8.8552119,6.5111093 9.093253,6.7931947 9.3497068,6.9376446 9.8361865,7.2116618 10.064216,5.5333131 9.5682178,5.276927 Z"
       id="path281"
       sodipodi:nodetypes="ssss" />
    <path
       style="fill:#9d9d9d;fill-opacity:1;stroke:none;stroke-width:0.161557px;stroke-linecap:butt;stroke-linejoin:miter;stroke-opacity:1"
       d="M 7.493097,9.44258 C 7.3265215,9.5548658 7.4970189,9.8010545 7.6471429,9.8224647 8.226948,9.9051502 9.2841551,9.3114984 9.6932219,8.7446757 9.897849,8.4611341 9.4822759,7.9461709 9.1800932,8.185018 8.6008917,8.6428242 8.1057894,9.0295697 7.4930973,9.442577 Z"
       id="path283"
       sodipodi:nodetypes="sssss" />
  </g>
</svg>
