<?xml version="1.0" encoding="UTF-8" standalone="no"?>
<!-- Created with Inkscape (http://www.inkscape.org/) -->

<svg
   width="10mm"
   height="10mm"
   viewBox="0 0 10 10"
   version="1.1"
   id="svg5"
   inkscape:version="1.1 (c4e8f9ed74, 2021-05-24)"
   sodipodi:docname="floor-stone.svg"
   xmlns:inkscape="http://www.inkscape.org/namespaces/inkscape"
   xmlns:sodipodi="http://sodipodi.sourceforge.net/DTD/sodipodi-0.dtd"
   xmlns="http://www.w3.org/2000/svg"
   xmlns:svg="http://www.w3.org/2000/svg">
  <sodipodi:namedview
     id="namedview7"
     pagecolor="#ffffff"
     bordercolor="#666666"
     borderopacity="1.0"
     inkscape:pageshadow="2"
     inkscape:pageopacity="0.0"
     inkscape:pagecheckerboard="0"
     inkscape:document-units="mm"
     showgrid="false"
     width="10mm"
     inkscape:lockguides="true"
     inkscape:zoom="6.6520416"
     inkscape:cx="23.426705"
     inkscape:cy="14.546747"
     inkscape:window-width="3840"
     inkscape:window-height="2073"
     inkscape:window-x="0"
     inkscape:window-y="46"
     inkscape:window-maximized="1"
     inkscape:current-layer="layer1" />
  <defs
     id="defs2" />
  <g
     inkscape:label="Layer 1"
     inkscape:groupmode="layer"
     id="layer1">
    <rect
       style="fill:#666666;fill-rule:evenodd;stroke-width:0.264583"
       id="rect31"
       width="10"
       height="10"
       x="0"
       y="0" />
    <path
       style="fill:#9d9d9d;stroke:none;stroke-width:0.265;stroke-linecap:butt;stroke-linejoin:miter;stroke-opacity:1;fill-opacity:1;stroke-miterlimit:4;stroke-dasharray:none"
       d="M 1.3601279,1.6669541 C -0.04180784,3.1354618 0.02468623,4.0333657 1.7697134,3.727941 3.5147406,3.4225163 3.4597583,2.2191551 3.3689554,2.0972005 3.2781525,1.9752457 1.8437904,1.1603245 1.3601279,1.6669541 Z"
       id="path190"
       sodipodi:nodetypes="ssss" />
    <path
       style="fill:#9d9d9d;stroke:none;stroke-width:0.265;stroke-linecap:butt;stroke-linejoin:miter;stroke-opacity:1;stroke-miterlimit:4;stroke-dasharray:none;fill-opacity:1"
       d="M 3.8163568,2.8402706 C 3.3740315,2.8957628 3.2966837,3.5810568 2.9445653,3.8544497 2.7694977,3.9903763 2.4469224,3.9507628 2.3486544,4.1494286 2.2235495,4.4023499 2.3109974,4.881472 2.5105639,4.9803131 2.7101302,5.0791541 3.8519562,5.1391813 4.3371597,4.7643811 4.6838054,4.4966112 4.9426926,3.9599969 4.816049,3.5406816 4.6984097,3.1511792 4.2200719,2.7896223 3.8163568,2.8402706 Z"
       id="path548"
       sodipodi:nodetypes="sssssss" />
    <path
       style="fill:#9d9d9d;fill-opacity:1;stroke:none;stroke-width:0.265;stroke-linecap:butt;stroke-linejoin:miter;stroke-miterlimit:4;stroke-dasharray:none;stroke-opacity:1"
       d="M 4.0760749,1.5670333 C 3.9503201,1.6478852 4.1190424,2.2342717 4.3465278,2.5789993 4.8013544,3.2682359 6.6554273,3.8590068 6.7869915,3.8106685 6.9938427,3.734669 6.6768257,3.2359134 6.8433453,2.7799281 6.9224675,2.5632654 7.4819636,2.1499395 7.1409342,2.0585512 6.8583926,1.9828363 6.3480849,2.2779342 5.7098938,2.242448 4.9023327,2.1975441 4.3909353,1.3645991 4.0760749,1.5670333 Z"
       id="path550"
       sodipodi:nodetypes="sssssss" />
    <path
       style="fill:#9d9d9d;stroke:none;stroke-width:0.265;stroke-linecap:butt;stroke-linejoin:miter;stroke-opacity:1;stroke-miterlimit:4;stroke-dasharray:none;fill-opacity:1"
       d="M 0.33805659,4.1870243 C -0.07975373,4.4828363 0.26738009,5.591679 0.28867809,5.722014 0.30997601,5.8523488 1.7165371,6.3296352 1.7729438,6.1942556 1.8293505,6.058876 2.2845102,5.1463819 2.0251941,4.7209233 1.7182001,4.2172398 0.81947645,3.8461764 0.33805659,4.1870243 Z"
       id="path552"
       sodipodi:nodetypes="sssss" />
    <path
       style="fill:#9d9d9d;stroke:none;stroke-width:0.265;stroke-linecap:butt;stroke-linejoin:miter;stroke-opacity:1;stroke-miterlimit:4;stroke-dasharray:none;fill-opacity:1"
       d="M 2.6065772,5.6214195 C 2.1855805,5.7983803 2.4523939,6.4635983 2.0818292,6.7304976 1.8310469,6.9111236 1.5161055,6.8778909 1.3379121,7.1304075 1.1016275,7.4652447 1.1904267,7.8511853 1.448515,8.1482013 1.6259337,8.3523802 3.355005,8.4747734 3.709,7.9648705 3.915773,7.6670297 4.2100229,6.6378899 3.8824942,6.1104906 3.6421972,5.7235552 3.0264706,5.4449225 2.6065772,5.6214195 Z"
       id="path554"
       sodipodi:nodetypes="sssssss" />
    <path
       style="fill:#9d9d9d;stroke:none;stroke-width:0.264583px;stroke-linecap:butt;stroke-linejoin:miter;stroke-opacity:1;fill-opacity:1"
       d="m 0.36542929,7.3536343 c 0.0198692,0.642099 -0.49160212,1.4887783 -0.0219583,1.927094 C 0.56880111,9.4910275 1.265066,9.2529673 1.2651452,9.2064893 1.2652244,9.1600122 0.94030991,8.0184705 0.89715366,7.3766509 0.87521025,7.0503086 1.0773525,6.6371453 0.86657801,6.3870355 0.74353218,6.2410265 0.42490449,6.2391502 0.29382299,6.3779902 0.06996308,6.6151 0.35534357,7.0277009 0.36542929,7.3536343 Z"
       id="path556"
       sodipodi:nodetypes="sssssss" />
    <path
       style="fill:#9d9d9d;stroke:none;stroke-width:0.265;stroke-linecap:butt;stroke-linejoin:miter;stroke-opacity:1;stroke-miterlimit:4;stroke-dasharray:none;fill-opacity:1"
       d="M 5.52987,5.6809432 C 4.816699,6.0368996 4.2451112,7.3185683 4.5946218,7.5688104 5.0001678,7.8591727 6.2214588,8.4549887 7.0155149,8.0751286 7.7853534,7.7068536 8.1693552,6.8159398 8.0657183,5.9688641 8.0063602,5.4837017 7.6950206,4.8423556 7.2105323,4.7777258 6.8018873,4.7232134 6.6544771,5.4731128 6.2510862,5.5581895 5.9891704,5.6134286 5.7693724,5.5614033 5.52987,5.6809432 Z"
       id="path558"
       sodipodi:nodetypes="sssssss" />
    <path
       style="fill:#9d9d9d;fill-opacity:1;stroke:none;stroke-width:0.265;stroke-linecap:butt;stroke-linejoin:miter;stroke-miterlimit:4;stroke-dasharray:none;stroke-opacity:1"
       d="M 5.4840361,3.9695856 C 4.9594682,4.1181739 4.6473572,5.046414 4.3980086,5.354148 4.1486599,5.6618819 4.1573673,5.5260435 4.094031,5.6614737 4.0048421,5.852184 4.2151317,6.172019 4.5415356,6.1758065 4.7663153,6.1784148 5.1528477,5.2244651 5.5126157,5.0550323 5.8723837,4.8855995 6.1869591,5.1749062 6.4154336,5.0338657 6.6439081,4.8928252 6.880457,4.9062685 6.7727321,4.558542 6.6650072,4.2108154 6.008604,3.8209972 5.4840361,3.9695856 Z"
       id="path560"
       sodipodi:nodetypes="ssssssss" />
    <path
       style="fill:#9d9d9d;stroke:none;stroke-width:0.264583px;stroke-linecap:butt;stroke-linejoin:miter;stroke-opacity:1;fill-opacity:1"
       d="M 4.7146422,8.3303721 C 4.1808735,8.3238336 3.2713057,8.43281 3.2447453,8.9659576 3.2216877,9.4287918 4.0036098,9.559392 4.4596294,9.6418135 5.2331076,9.7816127 6.6804823,10.067482 6.7911628,9.2893033 6.8985207,8.534485 5.4769998,8.3397107 4.7146422,8.3303721 Z"
       id="path562"
       sodipodi:nodetypes="sssss" />
    <path
       style="fill:#9d9d9d;stroke:none;stroke-width:0.264583px;stroke-linecap:butt;stroke-linejoin:miter;stroke-opacity:1;fill-opacity:1"
       d="M 1.6738467,8.6756866 C 1.3556287,8.8762201 1.480056,9.6474396 1.9157493,9.7778529 2.3765251,9.9157739 2.7403356,9.8535038 2.9948211,9.7056159 3.4775698,9.4250785 2.1462188,8.3780087 1.6738467,8.6756866 Z"
       id="path564"
       sodipodi:nodetypes="ssss" />
    <path
       style="fill:#9d9d9d;fill-opacity:1;stroke:none;stroke-width:0.264583px;stroke-linecap:butt;stroke-linejoin:miter;stroke-opacity:1"
       d="M 7.8084573,8.1940094 C 7.23183,8.5302273 6.848109,9.5502531 7.0290726,9.7017821 7.2333127,9.8728016 8.8467038,10.081449 9.4115245,9.3226045 9.7844533,8.8215697 9.7915984,8.5233957 9.2616932,8.1927716 8.9649974,8.007654 8.1105629,8.0178586 7.8084573,8.1940094 Z"
       id="path566"
       sodipodi:nodetypes="sssss" />
    <path
       style="fill:#9d9d9d;stroke:none;stroke-width:0.265;stroke-linecap:butt;stroke-linejoin:miter;stroke-opacity:1;stroke-miterlimit:4;stroke-dasharray:none;fill-opacity:1"
       d="M 8.8930675,5.2835217 C 8.8409972,5.6848511 8.1082389,6.9656288 8.1179997,7.5078541 8.1261593,7.9611296 9.4404541,7.6553416 9.4767523,7.5671761 9.5130503,7.4790101 9.705285,5.9267979 9.6561295,5.2084035 9.5815943,4.1190908 8.9645276,4.7327465 8.8930675,5.2835217 Z"
       id="path568"
       sodipodi:nodetypes="sssss" />
    <path
       style="fill:#9d9d9d;stroke:none;stroke-width:0.265;stroke-linecap:butt;stroke-linejoin:miter;stroke-opacity:1;stroke-miterlimit:4;stroke-dasharray:none;fill-opacity:1"
       d="M 7.4382135,3.2388036 C 7.4624898,3.7432243 7.3489618,4.6444442 7.8512847,4.6964175 8.6040628,4.7743044 9.1389991,3.989605 9.4450101,3.4111201 9.6884239,2.9509692 10.03944,2.1507946 9.4303998,2.0722256 9.0372212,2.0215038 8.7651065,2.5096477 8.4035678,2.6722881 8.1102472,2.8042402 7.6979985,2.7302835 7.4866259,2.9727087 7.4273779,3.0406608 7.4338796,3.1487535 7.4382135,3.2388036 Z"
       id="path570"
       sodipodi:nodetypes="sssssss" />
    <path
       style="fill:#9d9d9d;fill-opacity:1;stroke:none;stroke-width:0.264583px;stroke-linecap:butt;stroke-linejoin:miter;stroke-opacity:1"
       d="M 8.0969088,0.69375409 C 7.6294581,1.1131264 7.4765538,2.4020076 7.7310368,2.5418848 8.0842377,2.7360225 8.9964457,2.1094786 9.3814344,1.6081845 9.6017664,1.3212901 9.8875981,0.83395932 9.6540026,0.55775694 9.3175579,0.1599461 8.4847199,0.34583023 8.0969088,0.69375409 Z"
       id="path572"
       sodipodi:nodetypes="sssss" />
    <path
       style="fill:#9d9d9d;fill-opacity:1;stroke:none;stroke-width:0.264583px;stroke-linecap:butt;stroke-linejoin:miter;stroke-opacity:1"
       d="M 4.6177471,0.3301997 C 4.3624352,0.32579418 4.3430782,0.95738178 4.4778758,1.1742531 4.9984957,2.0118613 6.526393,2.2464705 7.3796122,1.75185 7.806419,1.5044254 7.7874602,0.11276476 7.2969811,0.16580445 6.3568674,0.26746695 5.5568237,0.34640389 4.6177471,0.3301997 Z"
       id="path574"
       sodipodi:nodetypes="sssss" />
    <path
       style="fill:#9d9d9d;stroke:none;stroke-width:0.264583px;stroke-linecap:butt;stroke-linejoin:miter;stroke-opacity:1;fill-opacity:1"
       d="M 0.69715099,0.2883331 C 0.42142786,0.62663332 -0.08933132,1.1951152 0.21668876,1.5062775 0.60785076,1.9040124 1.2256813,0.92338981 1.7835106,0.91816493 2.4155437,0.91224503 2.9969043,1.8157174 3.5709251,1.5511403 4.0121666,1.3477637 4.4535603,0.23383016 4.0934542,0.19045356 3.7077227,0.14399026 3.0009187,0.27534157 2.4536874,0.27102474 1.9280541,0.26687829 1.3884415,0.03518639 0.88005556,0.16879519 0.80961342,0.18730807 0.74316552,0.23187529 0.69715099,0.2883331 Z"
       id="path576"
       sodipodi:nodetypes="ssssssss" />
  </g>
</svg>
